<?xml version="1.0" standalone="no"?>
<!DOCTYPE svg PUBLIC "-//W3C//DTD SVG 20010904//EN"
 "http://www.w3.org/TR/2001/REC-SVG-20010904/DTD/svg10.dtd">
<svg version="1.0" xmlns="http://www.w3.org/2000/svg"
 width="192.000000pt" height="192.000000pt" viewBox="0 0 192.000000 192.000000"
 preserveAspectRatio="xMidYMid meet">
<metadata>
Created by potrace 1.11, written by Peter Selinger 2001-2013
</metadata>
<g transform="translate(0.000000,192.000000) scale(0.100000,-0.100000)"
fill="#000000" stroke="none">
<path d="M895 1877 c-17 -17 -57 -54 -89 -82 -47 -40 -59 -57 -62 -85 -7 -67
-72 -90 -126 -45 -27 23 -37 25 -136 25 -59 0 -117 -3 -129 -6 -22 -6 -38 -36
-47 -89 -3 -16 -9 -48 -14 -70 -12 -60 -8 -106 13 -148 19 -37 19 -37 -2 -65
-15 -20 -31 -28 -65 -32 -45 -6 -99 -36 -148 -82 -14 -13 -40 -34 -57 -46 -41
-29 -44 -71 -10 -116 13 -17 38 -56 55 -86 24 -42 43 -61 79 -80 39 -21 50
-32 57 -62 7 -29 6 -40 -7 -52 -8 -9 -20 -16 -25 -16 -15 0 -31 -42 -48 -125
-25 -121 -27 -148 -12 -167 25 -32 268 -106 268 -81 0 18 53 12 82 -8 28 -20
29 -24 23 -70 -7 -47 -4 -54 50 -147 31 -53 64 -105 74 -115 18 -19 16 -19
136 33 11 5 41 18 68 29 32 13 54 31 68 55 12 20 26 37 32 37 54 7 87 -3 87
-25 0 -23 53 -61 116 -84 32 -12 77 -30 99 -41 49 -24 63 -17 102 46 84 134
96 162 89 212 -6 44 -4 49 25 70 28 21 33 22 80 10 42 -11 54 -10 81 3 18 8
60 23 93 32 68 20 97 38 102 63 2 10 -6 69 -18 132 -20 103 -25 116 -55 143
-28 26 -32 35 -27 62 8 37 16 45 66 68 21 10 40 26 44 35 9 27 94 158 104 161
5 2 9 14 9 27 0 16 -15 34 -49 59 -27 20 -51 40 -53 44 -12 26 -94 74 -140 81
-36 6 -56 16 -69 32 -24 31 -23 40 2 83 18 31 19 41 10 103 -5 37 -13 82 -16
98 -4 17 -7 38 -8 49 -3 40 -44 50 -199 47 -67 -1 -80 -4 -108 -27 -24 -21
-37 -25 -62 -20 -43 9 -58 23 -58 58 0 32 -8 41 -129 151 -76 68 -102 72 -146
24z"/>
</g>
</svg>
